<?xml version="1.0" encoding="UTF-8"?>
<svg id="Layer_2" data-name="Layer 2" xmlns="http://www.w3.org/2000/svg" viewBox="0 0 1325.97 429.86">
  <defs>
    <style>
      .cls-1 {
        font-family: Lato-Regular, Lato;
        font-size: 46px;
      }

      .cls-1, .cls-2 {
        fill: #fff;
      }

      .cls-3 {
        letter-spacing: .25em;
      }

      .cls-4 {
        letter-spacing: .27em;
      }

      .cls-5 {
        letter-spacing: .26em;
      }

      .cls-6 {
        letter-spacing: .28em;
      }

      .cls-7 {
        letter-spacing: .28em;
      }

      .cls-8 {
        letter-spacing: .28em;
      }

      .cls-9 {
        letter-spacing: .27em;
      }

      .cls-10 {
        letter-spacing: .24em;
      }
    </style>
  </defs>
  <g id="Layer_1-2" data-name="Layer 1">
    <g id="Intense_Group_Logo" data-name="Intense Group Logo">
      <path class="cls-2" d="M221.13,429.86c-1.29-.82-2.58-1.64-3.87-2.46-4.97-3.15-7.19-9.13-5.38-14.55,1.77-5.32,7.17-8.89,12.68-8.38,5.92.54,10.57,5.01,11.41,10.93.81,5.79-2.33,10.86-8.05,13.09-.85.33-1.61.91-2.41,1.37h-4.38Z"/>
      <path class="cls-2" d="M0,190.81c.88-1.26,1.74-2.54,2.65-3.77,3.45-4.65,9.24-6.4,14.59-4.42,4.87,1.8,8.2,6.77,7.96,11.89-.25,5.45-4.15,10.24-9.44,11.62-5.42,1.41-10.78-.81-13.81-5.63-.54-.87-.55-2.22-1.95-2.41,0-2.43,0-4.86,0-7.29Z"/>
      <path class="cls-2" d="M168.35,134.67c2.09.7,3.33-.29,4.51-2.47,2.71-4.98,8.43-7.14,14.12-5.45,2.09.62,3.27.69,4.74-1.39,3.44-4.87,10.01-6.27,15.35-3.48,1.9.99,3.18,1.26,5.18-.03,5-3.22,11.13-2.47,15.38,1.8,1.47,1.48,2.31,1.26,3.92.43,6.24-3.21,12.64-1.5,16.53,4.4.95,1.45,1.67,1.8,3.46,1.43,6.58-1.37,11.79,1.45,14.3,7.69.68,1.68,1.48,2.05,3.16,2.09,7.21.18,11.14,3.72,12.13,10.91.2,1.45.7,1.96,2.13,2.34,7.53,2.03,10.09,5.54,9.76,13.4-.06,1.35.41,1.53,1.45,1.91,8.5,3.15,10.93,8.16,7.86,16.36-.55,1.47-.24,2.03.98,2.89,6.64,4.7,7.8,9.59,3.81,16.48-.91,1.57-.53,2.15.62,3.24,5.21,4.94,5.43,10.85.59,16.39-1.09,1.25-1.12,1.98-.29,3.39,3.24,5.48,2.59,10.24-2.05,14.38-1.58,1.41-2.04,2.53-1.43,4.62,1.66,5.74-.87,10.79-6.44,13.46-1.27.61-2.4.75-2.13,2.95.81,6.58-2.99,11.46-9.64,12.84-1.59.33-2.44.53-2.63,2.53-.67,6.98-5.35,11.18-12.38,11.25-1.9.02-2.63.44-3.17,2.35-1.97,7.08-7.86,10.42-15.22,8.64-1.8-.43-2.36-.22-3.13,1.52-3.2,7.31-11.02,9.82-17.92,5.75-1.69-1-2.46-.86-3.87.42-4.85,4.38-10.9,4.62-16.34.71-1.31-.94-2.08-.98-3.47-.19-5.85,3.29-11.16,2.56-15.87-2.26-1.25-1.28-2.15-1.33-3.74-.84-6.19,1.94-11.9-.26-14.89-5.83-.95-1.77-1.83-2.34-3.88-2.19-7.12.51-11.6-2.64-13.46-9.52-.47-1.75-1.2-1.93-2.7-2.01-8.07-.39-12.31-5-12.01-13.18.06-1.73-.42-2.28-2.02-2.67-8.89-2.15-11.67-6.38-9.93-15.24.32-1.65-.43-2.06-1.54-2.75-6.22-3.91-7.71-8.17-5.13-15.13.55-1.48.12-2.11-.88-3.04-5.99-5.59-6.36-10.48-1.22-17.15.84-1.09.76-1.69.17-2.82-3-5.72-2.36-10.15,2.2-14.44,1.3-1.22,1.5-1.94.62-3.58-3.51-6.53-1.46-12.7,5.25-16.06,1.39-.7,1.99-1,1.41-2.83-2.2-6.93,1.56-13.28,8.83-14.79,2.23-.46,2.53-1.05,2.35-3.2-.51-6.08,4.08-11.34,10.64-12.13,2.12-.26,2.72-.88,3.14-2.91,1.17-5.66,6.26-9.17,12.77-9.01ZM279.43,178.89c.94-2.56-.73-3.35-3.05-4.22-4.31-1.61-6.99-4.79-7.25-9.55-.09-1.69-.47-2.53-2.39-2.87-4.5-.8-7.79-3.38-9.2-7.84-.56-1.78-1.53-2.09-3.2-2.04-4.62.14-8.29-1.77-10.62-5.79-.91-1.56-1.81-1.84-3.51-1.41-4.5,1.14-8.42-.24-11.65-3.44-1.09-1.08-1.87-1.5-3.39-.62-4.35,2.53-8.82,2.45-13.13-.14-1.28-.77-2.17-.54-3.28.22-3.66,2.53-7.66,3.06-11.78,1.41-1.59-.64-2.33-.28-3.23,1.06-2.92,4.38-7.18,6.09-12.28,5.3-1.77-.27-2.27.33-2.96,1.69-2.07,4.08-5.38,6.5-10.05,6.77-1.3.08-2.37.17-2.57,1.85-.67,5.76-4.4,8.65-9.66,9.97-1.42.36-2.35.62-2.16,2.52.59,5.66-2.04,9.56-7.17,11.79-1.26.55-1.6,1.08-1.09,2.45,1.83,4.91.51,9.12-3.41,12.41-1.5,1.26-1.3,2.02-.41,3.54,2.7,4.59,2.28,8.97-1.27,13.11-1.22,1.42-1.52,2.31-.46,4,1.91,3.06,2.15,6.51.55,9.75-.98,1.99-.48,2.93,1.09,4.19,3.78,3.03,5.06,7.09,3.7,11.72-.54,1.85-.37,2.77,1.43,3.72,4.84,2.55,6.94,6.72,6.01,12.1-.33,1.91.1,2.16,1.83,2.35,5.81.64,9.53,3.8,10.71,9.28.4,1.87,1.06,2.28,2.83,2.26,5.23-.06,9.1,2.28,11.27,7.11.58,1.29,1.2,1.9,2.73,1.58,4.71-.97,8.62.62,11.74,4.13.98,1.1,1.79,1.24,3.14.7,4.32-1.71,8.39-.93,12.01,1.83,1.43,1.1,2.46.84,3.89.05,4.26-2.35,8.65-2.28,12.84.17,1.51.88,2.44.94,3.76-.32,3.42-3.29,7.54-4.3,12.12-2.96,1.58.46,2.37.21,3.02-1.41,2.15-5.34,6.33-7.8,11.99-7.75,1.57.01,2.45-.26,2.79-1.98,1.05-5.43,4.61-8.35,9.9-9.29,1.67-.3,2.48-.87,2.47-2.79-.04-4.78,2.6-8.03,6.79-9.87,1.8-.79,2.31-1.65,2.08-3.52-.48-4.06,1.03-7.43,4.27-9.87,1.39-1.05,1.71-1.87,1.09-3.59-1.52-4.25-.69-8.22,2.63-11.34,1.57-1.47,1.15-2.38.19-3.9-2.42-3.84-2.44-7.94.17-11.63,1.42-2.01.93-2.91-.66-4.38-3.67-3.42-4.52-7.75-2.57-12.3.89-2.08.83-3.03-1.22-4.27-3.53-2.13-5.49-5.41-5.41-9.98Z"/>
      <path class="cls-2" d="M1275.31,260.18c-15.57,0-31.14.08-46.7-.07-2.99-.03-3.73.82-3.35,3.69.87,6.65,2.02,13.22,4.96,19.31,7.4,15.28,19.57,23.12,36.63,22.87,16.27-.24,26.79-8.91,32.77-23.46,1.3-3.16,2.61-4.2,6.03-3.55,5.48,1.04,11.06,1.63,16.63,2.19,2.52.25,2.59,1.21,1.9,3.3-7.04,21.47-21.26,34.94-43.73,39.14-12.51,2.33-25.01,2-37.17-1.82-19.72-6.2-32.47-19.59-38.22-39.26-5.56-19.01-5.29-38.23.68-57.09,8.39-26.49,31.84-43.5,63.34-41.55,28.6,1.78,50.72,21.56,55.48,53.44.95,6.38,1.35,12.78,1.42,19.23.03,3.17-1.06,3.74-3.96,3.71-15.57-.14-31.14-.07-46.7-.07ZM1264.02,241.33c11.54,0,23.08,0,34.62,0,1.43,0,2.98.36,2.71-2.1-1.26-11.31-4.53-21.69-14.05-28.92-11.93-9.06-25.12-10.2-38.52-4.29-14.07,6.21-20.65,18.06-22.26,33.01-.29,2.7,1.33,2.29,2.88,2.29,11.54,0,23.08,0,34.62,0Z"/>
      <path class="cls-2" d="M856.22,260.18c-15.44,0-30.89.09-46.33-.08-3.21-.04-3.87.91-3.47,3.91.88,6.53,2.01,12.98,4.88,18.96,7.26,15.13,19.25,23.08,36.18,23.01,16.42-.06,27.2-8.58,33.21-23.31,1.48-3.64,3.19-4.28,6.66-3.64,5.25.96,10.58,1.58,15.9,2.09,2.69.26,2.78,1.24,2.04,3.5-7.13,21.64-21.59,34.99-44.19,39.08-11.64,2.11-23.31,1.84-34.7-1.36-20.62-5.79-34.12-19.27-40.1-39.62-5.76-19.58-5.4-39.39,1.15-58.8,8.43-24.96,31.38-42.06,62.92-40.04,28.24,1.81,50.49,21.31,55.3,53.17,1,6.62,1.28,13.28,1.29,19.97,0,2.54-.79,3.25-3.32,3.23-15.81-.11-31.62-.06-47.42-.06ZM844.83,241.33c11.66,0,23.32,0,34.98,0,1.44,0,2.97.34,2.7-2.11-1.28-11.6-4.74-22.15-14.64-29.35-12.1-8.81-25.33-9.69-38.61-3.53-13.65,6.34-20.02,18.07-21.59,32.72-.29,2.68,1.35,2.28,2.89,2.28,11.42,0,22.84,0,34.25,0Z"/>
      <path class="cls-2" d="M1126.51,324.9c-9.89-.17-19.66-1.13-28.9-5.04-16.36-6.93-24.05-20.35-27.58-36.87-.3-1.42.2-2.01,1.56-2.19,6.26-.83,12.53-1.65,18.78-2.56,1.61-.24,2.08.38,2.35,1.85,3.29,17.79,15.95,25.87,33.91,25.93,5.75.02,11.42-.45,16.87-2.41,5.6-2.02,9.96-5.55,12.76-10.83,4.63-8.74,1.5-17.83-7.54-21.77-6.93-3.03-14.3-4.71-21.58-6.6-9.88-2.57-19.74-5.16-29.29-8.81-15.53-5.94-24.04-17.18-24.3-32.06-.27-15.23,8.52-28.84,23.27-34.65,19.72-7.76,39.48-6.97,58.87,1.44,12.61,5.48,18.17,16.17,20.69,28.96.36,1.83-.39,2.36-1.98,2.57-5.9.77-11.8,1.59-17.7,2.41-1.26.17-2.32.37-2.71-1.41-2.91-13.5-12.28-19.04-25.17-20.09-6.22-.5-12.39.03-18.46,1.45-1.18.28-2.33.69-3.46,1.14-6.8,2.74-11.42,8.7-11.19,14.76.28,7.33,4.92,11.55,11.27,13.71,8.15,2.77,16.52,4.93,24.81,7.28,8.53,2.41,16.98,5.08,25.42,7.79,31.43,10.11,30.16,46.37,11.1,62.69-8.6,7.37-18.75,11.03-29.8,12.56-3.97.55-7.97.93-12,.74Z"/>
      <path class="cls-2" d="M955.16,205.73c4.96-6.86,10.03-12.27,16.74-15.61,18.85-9.4,37.62-8.9,55.65,1.93,10.52,6.32,14.44,16.97,15.92,28.58.81,6.39.74,12.85.75,19.29.01,26.11-.05,52.23.08,78.34.02,3.15-.99,3.85-3.91,3.72-4.98-.23-9.98-.26-14.95,0-3.24.17-4.28-.64-4.26-4.1.17-25.26.1-50.53.08-75.79,0-5.46-.11-10.92-.94-16.35-1.87-12.16-9.46-19.89-21.73-21.62-8.27-1.17-16.18.12-23.69,4-11.01,5.7-15.14,15.51-16.68,26.99-.61,4.59-.78,9.19-.78,13.81.01,23.08-.05,46.16.07,69.23.02,2.97-.68,3.98-3.77,3.84-5.46-.26-10.95-.19-16.41-.02-2.31.07-2.88-.72-2.86-2.9.1-9.59.04-19.19.04-28.79,0-33.28.03-66.56-.06-99.84,0-2.79.59-3.85,3.56-3.66,4.24.27,8.53.29,12.76,0,3.4-.24,4.76.58,4.46,4.28-.37,4.52-.09,9.1-.09,14.67Z"/>
      <path class="cls-2" d="M593.96,205.5c2.08-2.5,3.56-4.38,5.14-6.17,18.2-20.54,51.94-19.04,69.12-6.08,9.04,6.82,12.77,16.56,14.06,27.4.8,6.76.75,13.57.75,20.37,0,25.62-.08,51.24.09,76.86.02,3.49-1.05,4.27-4.26,4.1-4.85-.26-9.73-.27-14.58,0-3.25.18-4.28-.67-4.26-4.11.16-25.25.1-50.51.07-75.77,0-5.46-.11-10.92-.94-16.34-1.81-11.74-8.6-19.08-20.26-21.38-7.31-1.44-14.52-.72-21.49,2.01-13.2,5.18-18.87,15.63-20.4,29.01-.52,4.59-.76,9.19-.76,13.81.02,22.95-.07,45.9.1,68.85.03,3.36-.95,4.08-4.07,3.93-5.22-.26-10.46-.2-15.68-.01-2.56.09-3.61-.7-3.2-3.24.02-.12,0-.24,0-.36,0-42.62.03-85.24-.06-127.86,0-2.75.54-3.85,3.54-3.68,4.73.27,9.48.17,14.22.03,2.2-.07,2.97.59,2.9,2.86-.16,4.97-.05,9.95-.05,15.79Z"/>
      <path class="cls-2" d="M721.88,253.01c0-16.99-.06-31.08.06-45.16.02-2.56-.69-3.37-3.25-3.22-3.76.21-7.54,0-11.31.08-1.69.04-2.38-.46-2.33-2.26.11-4.37.12-8.75,0-13.11-.06-1.94.63-2.53,2.5-2.48,3.77.11,7.54-.09,11.31.08,2.35.11,3.13-.57,3.09-3.04-.15-9.11,0-18.22-.11-27.32-.03-2.18.52-3.53,2.51-4.66,5.7-3.24,11.26-6.74,16.9-10.09.9-.53,1.8-1.74,2.86-1.2,1.09.55.51,1.96.51,2.98.04,13.24.11,26.47-.05,39.71-.04,2.9.76,3.76,3.65,3.64,5.58-.22,11.19,0,16.78-.1,1.97-.04,2.83.44,2.75,2.62-.16,4.24-.14,8.5,0,12.75.06,1.93-.59,2.52-2.49,2.49-5.96-.1-11.92.03-17.87-.07-1.98-.03-2.79.44-2.77,2.62.27,27.56-.46,55.13.43,82.69.26,7.91,4.05,11.33,11.96,11.51,2.19.05,4.43.2,6.55-.2,3.2-.59,4.53.39,4.87,3.68.49,4.7,1.4,9.36,2.24,14.02.29,1.59.04,2.51-1.73,2.83-8.91,1.66-17.85,2.46-26.8.49-12.46-2.74-18.54-10.37-19.62-24.11-1.25-16.01-.23-32.05-.61-45.16Z"/>
      <path class="cls-2" d="M532.73,229.04c0,29.5-.09,59,.11,88.5.03,3.86-1.12,4.65-4.66,4.46-5.58-.3-11.18-.22-16.77-.02-2.68.1-3.52-.59-3.48-3.39.16-12.87.07-25.74.07-38.6,0-46.5.06-92.99-.1-139.49-.01-3.97,1.19-4.83,4.83-4.63,5.45.29,10.94.22,16.4.02,2.8-.11,3.68.62,3.67,3.57-.13,24.28-.07,48.56-.07,72.84,0,5.58,0,11.17,0,16.75Z"/>
      <path class="cls-2" d="M277.2,306.49c1.12-8.99,3.66-12.5,9.47-13.39,4.57-.7,9.37,1.94,11.3,6.24,1.91,4.23.77,9.19-2.79,12.22-4.24,3.6-8.84,3.31-15.52-1,.27,7.93-1.7,11.78-6.91,13.55-4.53,1.53-9.46-.08-12.25-4-2.6-3.64-2.68-8.78.16-12.22,4.89-5.93,10.64-5.11,16.54-1.4ZM277.54,306.86c-.04.08-.14.18-.12.24.13.35.3.36.45.02.03-.06-.04-.19-.11-.25-.04-.04-.15,0-.23-.02Z"/>
      <path class="cls-2" d="M237.96,13.13c-.05,6.81-5.57,12.26-12.34,12.18-6.86-.08-12.43-5.75-12.41-12.64.02-6.53,5.86-12.61,12.18-12.68,6.5-.07,12.62,6.33,12.57,13.13Z"/>
      <path class="cls-2" d="M54.72,321.62c.02,6.9-5.63,12.61-12.46,12.59-6.73-.02-12.23-5.56-12.26-12.36-.03-6.9,5.66-12.65,12.46-12.61,6.74.04,12.23,5.59,12.26,12.38Z"/>
      <path class="cls-2" d="M425.61,173.41c-.04,6.97-5.58,12.44-12.55,12.4-6.82-.04-12.27-5.55-12.2-12.34.06-6.84,5.82-12.51,12.64-12.47,6.78.04,12.15,5.54,12.11,12.4Z"/>
      <path class="cls-2" d="M268.69,398.35c6.98,0,12.58,5.51,12.59,12.4,0,6.74-5.54,12.25-12.33,12.26-6.84,0-12.6-5.7-12.61-12.5-.01-6.77,5.46-12.15,12.36-12.16Z"/>
      <path class="cls-2" d="M311.03,404.37c-6.89-.07-12.58-5.85-12.42-12.64.15-6.71,5.84-12.15,12.6-12.05,6.88.1,12.56,5.9,12.41,12.68-.15,6.75-5.74,12.08-12.59,12.01Z"/>
      <path class="cls-2" d="M54.61,76.93c.14-6.73,5.76-12.09,12.59-12.01,6.91.08,12.49,5.83,12.31,12.7-.17,6.86-5.94,12.16-13,11.94-6.83-.21-12.05-5.75-11.9-12.63Z"/>
      <path class="cls-2" d="M111.96,50.34c-.03,6.75-5.56,12.2-12.38,12.2-6.92,0-12.65-5.67-12.59-12.47.06-6.69,5.67-12.2,12.44-12.21,6.97-.01,12.57,5.56,12.54,12.47Z"/>
      <path class="cls-2" d="M401.05,258.73c-.03-6.9,5.56-12.51,12.49-12.54,6.8-.03,12.38,5.44,12.43,12.17.05,6.78-5.71,12.54-12.55,12.57-6.8.03-12.35-5.43-12.37-12.2Z"/>
      <path class="cls-2" d="M387.77,94.59c-.3,6.95-6.17,12.39-12.98,12.03-6.75-.35-12-6.14-11.7-12.9.31-6.94,6.19-12.4,12.98-12.04,6.71.35,11.99,6.18,11.7,12.91Z"/>
      <path class="cls-2" d="M360.5,368.75c.02,6.75-5.44,12.23-12.27,12.3-7.04.07-12.62-5.36-12.64-12.3-.01-6.8,5.39-12.23,12.24-12.33,6.95-.09,12.64,5.44,12.66,12.32Z"/>
      <path class="cls-2" d="M344.52,49.94c6.76.07,12.22,5.59,12.25,12.38.03,6.83-5.76,12.61-12.54,12.52-6.85-.09-12.34-5.86-12.18-12.83.16-6.85,5.62-12.14,12.47-12.07Z"/>
      <path class="cls-2" d="M182.16,3.86c6.89.03,12.55,5.68,12.54,12.53-.01,6.76-5.55,12.25-12.34,12.23-6.93-.02-12.47-5.59-12.47-12.54,0-6.87,5.4-12.24,12.27-12.22Z"/>
      <path class="cls-2" d="M13.52,225.69c6.84-.06,12.33,5.32,12.4,12.15.07,6.83-5.57,12.59-12.43,12.67-6.74.08-12.34-5.43-12.41-12.19-.07-6.85,5.57-12.58,12.44-12.63Z"/>
      <path class="cls-2" d="M267.09,7.69c6.97-.03,12.49,5.47,12.52,12.45.03,6.84-5.39,12.37-12.15,12.41-6.79.04-12.55-5.7-12.59-12.52-.04-6.81,5.41-12.31,12.22-12.34Z"/>
      <path class="cls-2" d="M138.39,15.14c6.92.05,12.56,5.75,12.48,12.57-.09,6.75-5.69,12.2-12.47,12.13-6.93-.07-12.51-5.71-12.45-12.6.06-6.77,5.6-12.16,12.45-12.1Z"/>
      <path class="cls-2" d="M22.07,163.98c-6.85-.06-12.36-5.58-12.27-12.29.08-6.82,5.86-12.42,12.74-12.36,6.77.06,12.36,5.68,12.28,12.35-.09,6.84-5.81,12.36-12.75,12.3Z"/>
      <path class="cls-2" d="M56.57,358.07c-.03-6.93,5.64-12.66,12.45-12.58,6.73.08,12.18,5.62,12.21,12.43.03,6.97-5.54,12.6-12.43,12.56-6.7-.03-12.2-5.61-12.23-12.41Z"/>
      <path class="cls-2" d="M399.52,309.83c-6.91,0-12.3-5.34-12.32-12.18-.02-6.86,5.64-12.49,12.56-12.48,6.74,0,12.36,5.58,12.37,12.26,0,6.87-5.63,12.41-12.61,12.4Z"/>
      <path class="cls-2" d="M308.28,24.45c6.93-.09,12.57,5.44,12.64,12.38.07,6.71-5.47,12.41-12.15,12.51-6.82.1-12.53-5.55-12.59-12.47-.06-6.87,5.27-12.34,12.1-12.43Z"/>
      <path class="cls-2" d="M387.41,131.04c.04-6.98,5.6-12.49,12.54-12.42,6.74.06,12.23,5.67,12.15,12.44-.07,6.88-5.79,12.5-12.64,12.44-6.79-.07-12.1-5.55-12.06-12.45Z"/>
      <path class="cls-2" d="M27.55,112.71c-.05-6.99,5.38-12.42,12.45-12.44,6.92-.02,12.38,5.27,12.46,12.06.08,6.86-5.5,12.43-12.51,12.48-6.87.05-12.35-5.3-12.4-12.11Z"/>
      <path class="cls-2" d="M35.36,282c-.02,6.96-5.56,12.46-12.53,12.44-6.82-.02-12.21-5.48-12.17-12.33.04-6.92,5.66-12.53,12.54-12.51,6.75.02,12.19,5.56,12.16,12.4Z"/>
      <path class="cls-2" d="M111.99,383.19c.09,6.86-5.22,12.42-12,12.54-7.01.13-12.54-5.26-12.6-12.29-.07-6.9,5.19-12.44,11.94-12.61,6.84-.17,12.56,5.41,12.65,12.35Z"/>
      <path class="cls-2" d="M198.72,416.23c.01,6.88-5.34,12.28-12.2,12.28-6.94,0-12.5-5.55-12.52-12.48-.02-6.83,5.43-12.31,12.22-12.31,6.93,0,12.48,5.56,12.49,12.51Z"/>
      <path class="cls-2" d="M128.22,403.99c.05-6.88,5.45-12.25,12.29-12.21,6.88.04,12.44,5.74,12.35,12.66-.08,6.83-5.57,12.27-12.34,12.22-6.9-.05-12.35-5.66-12.3-12.67Z"/>
      <path class="cls-2" d="M377.64,348.44c-6.93-.06-12.2-5.37-12.18-12.27.02-6.92,5.66-12.44,12.61-12.34,6.77.1,12.31,5.67,12.29,12.35-.02,6.86-5.68,12.32-12.71,12.25Z"/>
      <path class="cls-2" d="M416.93,202.26c6.9-.08,12.33,5.22,12.38,12.08.05,6.9-5.48,12.6-12.35,12.72-6.69.12-12.37-5.44-12.44-12.18-.07-6.9,5.47-12.54,12.4-12.62Z"/>
      <path class="cls-2" d="M373.07,153.69c-6.14-.07-11.02-5.12-10.9-11.29.11-6.12,5.14-11.1,11.21-11.11,6.13-.01,11.09,4.98,11.08,11.14-.01,6.3-5.09,11.33-11.39,11.26Z"/>
      <path class="cls-2" d="M260.82,36.95c6.29.03,11.39,5.19,11.28,11.41-.1,6.08-5.3,11.13-11.31,10.98-6.06-.15-11.05-5.25-11.08-11.31-.03-6.16,4.93-11.11,11.11-11.08Z"/>
      <path class="cls-2" d="M372.94,275.43c6.18-.09,11.25,4.75,11.37,10.87.13,6.12-5.11,11.38-11.33,11.39-6.02.01-10.96-4.77-11.11-10.73-.15-6.34,4.75-11.44,11.07-11.54Z"/>
      <path class="cls-2" d="M197.75,44.69c.04,6.18-4.91,11.17-11.06,11.16-6.19,0-11.4-5.25-11.34-11.42.05-5.95,4.95-10.86,10.92-10.95,6.26-.09,11.44,4.96,11.48,11.2Z"/>
      <path class="cls-2" d="M354,309c6.15-.02,11.25,4.95,11.27,11,.02,6.16-5.25,11.33-11.46,11.25-6.15-.08-11.04-5.07-10.99-11.22.05-6.14,4.98-11.01,11.18-11.03Z"/>
      <path class="cls-2" d="M41.03,208.89c-6.17-.07-11.09-5.13-10.96-11.24.14-6.09,5.17-11.03,11.27-11.06,6.14-.03,11.17,4.96,11.15,11.08-.02,6.22-5.21,11.3-11.47,11.23Z"/>
      <path class="cls-2" d="M384.93,167.34c6.17-.07,11.18,4.83,11.21,10.97.03,6.2-5.15,11.38-11.35,11.35-6.02-.03-10.88-4.79-11.03-10.82-.16-6.23,4.89-11.42,11.17-11.49Z"/>
      <path class="cls-2" d="M60.95,160.24c.03,6.23-5.11,11.36-11.37,11.32-6.02-.03-10.92-4.82-11.04-10.8-.13-6.27,4.87-11.41,11.16-11.49,6.16-.07,11.21,4.85,11.25,10.97Z"/>
      <path class="cls-2" d="M150.71,388.48c-6.15-.05-11.09-4.99-11.15-11.13-.06-6.1,4.94-11.21,11.02-11.25,6.16-.04,11.37,5.2,11.33,11.39-.04,6.17-5.01,11.04-11.2,10.99Z"/>
      <path class="cls-2" d="M53.25,234.99c-.14,6.22-5.48,11.28-11.65,11.05-5.95-.22-10.77-5.27-10.7-11.2.07-6.22,5.31-11.32,11.53-11.21,6.17.11,10.96,5.14,10.83,11.35Z"/>
      <path class="cls-2" d="M160.6,54.19c-.03,6.14-5.05,11.03-11.23,10.95-6.15-.08-11.17-5.05-11.22-11.11-.05-6.08,4.96-11.11,11.1-11.14,6.29-.03,11.38,5.04,11.36,11.29Z"/>
      <path class="cls-2" d="M326.18,95.67c-6.16.08-11.1-4.73-11.25-10.96-.15-6.36,4.81-11.5,11.09-11.49,6.06,0,11.05,5.02,11.1,11.16.05,6.17-4.83,11.21-10.94,11.29Z"/>
      <path class="cls-2" d="M250.18,382.93c-.07-6.21,4.78-11.21,10.93-11.25,6.17-.04,11.43,5.16,11.46,11.31.03,5.87-4.89,10.87-10.87,11.05-6.23.18-11.45-4.86-11.53-11.12Z"/>
      <path class="cls-2" d="M116.23,62.44c6.37-.03,11.49,5,11.42,11.21-.07,6.11-5.08,10.94-11.31,10.89-6.21-.04-11.18-4.92-11.21-11.02-.04-6.14,4.89-11.05,11.1-11.08Z"/>
      <path class="cls-2" d="M234.06,388.35c-.04,6.12-5.1,11.03-11.27,10.95-6.26-.09-11.26-5.28-11.12-11.55.13-5.96,5.1-10.83,11.05-10.84,6.14-.01,11.38,5.27,11.34,11.44Z"/>
      <path class="cls-2" d="M396.42,252.83c.07,6.22-5.04,11.39-11.27,11.43-6.12.04-11.15-4.99-11.12-11.11.04-6.1,4.99-11.12,11.1-11.24,6.12-.12,11.23,4.81,11.29,10.92Z"/>
      <path class="cls-2" d="M308.62,367c-.09,6.06-5.24,11.05-11.32,10.97-6.24-.09-11.32-5.33-11.16-11.53.15-5.94,5.1-10.75,11.11-10.78,6.24-.03,11.47,5.18,11.38,11.34Z"/>
      <path class="cls-2" d="M127.33,359.81c.04,6.19-4.83,11.15-11,11.19-6.14.05-11.12-4.83-11.23-11-.11-6.29,4.99-11.51,11.18-11.44,6.09.07,11.01,5.08,11.05,11.24Z"/>
      <path class="cls-2" d="M77.69,306.14c-.03,6.29-5.21,11.44-11.38,11.3-6.11-.13-10.96-5.22-10.85-11.39.11-6.17,5.07-11.09,11.18-11.09,6.11,0,11.08,5.03,11.05,11.17Z"/>
      <path class="cls-2" d="M223.03,30.37c6.26.07,11.32,5.28,11.15,11.51-.16,5.97-5.13,10.84-11.06,10.84-6.18,0-11.4-5.25-11.36-11.41.04-6.13,5.05-10.99,11.26-10.93Z"/>
      <path class="cls-2" d="M49.95,283.35c-6.1.02-11.09-5-11.09-11.14,0-6.22,5.24-11.4,11.41-11.3,5.94.1,10.83,5.01,10.93,10.98.1,6.2-5.05,11.44-11.25,11.46Z"/>
      <path class="cls-2" d="M306.95,62.74c-.05,6.17-5.02,11.09-11.16,11.05-6.29-.04-11.23-5.15-11.12-11.49.11-6.17,5.15-11.01,11.3-10.88,6.07.13,11.02,5.23,10.97,11.32Z"/>
      <path class="cls-2" d="M78.12,337.43c.09-6.17,5.07-11.07,11.2-11.03,6.13.05,11.01,5.04,11,11.24-.01,6.32-5.16,11.39-11.39,11.22-6.09-.16-10.89-5.24-10.8-11.43Z"/>
      <path class="cls-2" d="M64.97,137.66c-6.22-.02-11.13-4.91-11.1-11.07.02-6.24,5.19-11.22,11.51-11.12,5.98.1,10.9,4.99,10.97,10.91.08,6.19-5.08,11.29-11.38,11.27Z"/>
      <path class="cls-2" d="M328.6,336.58c6.13.08,11.2,5.15,11.14,11.15-.06,6.07-5.11,11.04-11.24,11.06-6.3.02-11.35-5.08-11.24-11.36.1-6.13,5.13-10.94,11.34-10.85Z"/>
      <path class="cls-2" d="M363.5,111.52c-.07,6.15-5.06,11.19-11.09,11.2-6.23,0-11.17-5.15-11.05-11.54.12-6.23,5.01-10.96,11.25-10.89,6.21.06,10.96,4.96,10.88,11.24Z"/>
      <path class="cls-2" d="M88.39,85.65c6.22.08,11.07,4.97,11.04,11.14-.03,6.14-4.97,11.01-11.18,11.01-6.33,0-11.43-5.13-11.27-11.34.16-6.11,5.21-10.89,11.41-10.81Z"/>
      <path class="cls-2" d="M189.52,376.44c6.32,0,11.25,5.01,11.21,11.37-.04,6.06-4.79,10.86-10.82,10.93-6.28.08-11.38-4.92-11.43-11.21-.06-6.18,4.84-11.09,11.05-11.09Z"/>
      <path class="cls-2" d="M399.33,214.68c.05,6.31-4.93,11.3-11.28,11.31-6.26,0-11.07-4.81-11.04-11.06.02-6.11,4.95-11.07,11.1-11.16,6.22-.09,11.18,4.72,11.22,10.9Z"/>
      <path class="cls-2" d="M193.14,347.28c5.88.16,10.57,5.06,10.42,10.87-.15,5.74-4.91,10.37-10.6,10.3-5.98-.08-10.75-5.12-10.55-11.14.2-5.83,4.87-10.2,10.73-10.03Z"/>
      <path class="cls-2" d="M345.52,264.53c5.74.07,10.44,4.76,10.47,10.45.04,5.98-4.94,10.78-11.02,10.64-5.82-.13-10.31-4.77-10.23-10.57.08-5.87,4.93-10.6,10.79-10.52Z"/>
      <path class="cls-2" d="M142.29,295.66c.02,5.86-4.86,10.79-10.61,10.74-5.64-.05-10.4-4.8-10.5-10.49-.11-5.86,4.65-10.82,10.44-10.89,5.83-.07,10.65,4.74,10.67,10.64Z"/>
      <path class="cls-2" d="M257.66,106.1c.09,5.96-4.61,10.76-10.51,10.73-5.61-.02-10.45-4.77-10.63-10.41-.18-5.85,4.57-10.85,10.38-10.92,5.8-.07,10.68,4.73,10.77,10.59Z"/>
      <path class="cls-2" d="M116.84,252.06c-.05,5.88-4.91,10.73-10.7,10.69-5.64-.04-10.39-4.84-10.44-10.54-.05-5.76,4.86-10.8,10.58-10.86,5.84-.06,10.62,4.78,10.57,10.71Z"/>
      <path class="cls-2" d="M110.23,106.38c5.83-.07,10.8,4.78,10.8,10.55,0,5.69-4.65,10.39-10.41,10.51-5.97.12-10.91-4.5-11.01-10.3-.1-5.75,4.77-10.68,10.62-10.76Z"/>
      <path class="cls-2" d="M102.27,289.87c.02,5.94-4.66,10.75-10.51,10.78-5.83.03-10.62-4.84-10.55-10.73.07-5.87,4.95-10.68,10.75-10.61,5.72.08,10.29,4.75,10.31,10.56Z"/>
      <path class="cls-2" d="M201.68,74.26c.04,5.77-4.5,10.48-10.25,10.62-5.87.15-11.01-4.92-10.97-10.81.04-5.7,4.74-10.36,10.5-10.41,5.84-.05,10.68,4.74,10.72,10.61Z"/>
      <path class="cls-2" d="M317.79,273.79c-5.71-.09-10.47-4.87-10.46-10.5,0-5.95,5.05-10.76,11.12-10.59,5.78.15,10.36,4.91,10.24,10.62-.12,5.83-5.05,10.57-10.9,10.47Z"/>
      <path class="cls-2" d="M78.16,251.18c5.89-.04,10.7,4.78,10.63,10.64-.08,5.83-4.97,10.63-10.8,10.59-5.75-.04-10.36-4.7-10.4-10.48-.03-5.88,4.72-10.71,10.57-10.75Z"/>
      <path class="cls-2" d="M329.23,313.91c-5.86.07-10.81-4.75-10.81-10.52,0-5.78,4.9-10.56,10.8-10.55,5.73.01,10.52,4.66,10.64,10.32.12,5.69-4.81,10.68-10.64,10.75Z"/>
      <path class="cls-2" d="M230.86,71.39c0,5.81-4.53,10.45-10.3,10.54-5.94.09-10.98-4.94-10.88-10.85.09-5.71,4.84-10.39,10.54-10.39,5.8,0,10.64,4.86,10.65,10.71Z"/>
      <path class="cls-2" d="M161.18,338.72c5.84-.05,10.7,4.73,10.78,10.58.08,5.71-4.55,10.52-10.26,10.65-6.01.14-10.97-4.74-10.94-10.75.03-5.75,4.68-10.43,10.42-10.48Z"/>
      <path class="cls-2" d="M368.79,215.15c-.04,5.88-4.81,10.62-10.69,10.64-5.9.02-10.75-4.88-10.58-10.68.17-5.81,5.1-10.53,10.94-10.46,5.78.07,10.38,4.75,10.34,10.5Z"/>
      <path class="cls-2" d="M70.98,211.98c-5.85.02-10.47-4.47-10.55-10.26-.08-5.88,4.61-10.73,10.48-10.84,5.93-.11,10.79,4.62,10.78,10.46-.01,5.82-4.83,10.61-10.71,10.63Z"/>
      <path class="cls-2" d="M254.32,66.74c5.88.08,10.61,4.91,10.54,10.77-.06,5.72-4.79,10.44-10.47,10.45-5.95.01-10.82-5.01-10.68-11.03.14-5.82,4.77-10.26,10.61-10.19Z"/>
      <path class="cls-2" d="M272.09,89.37c.02-5.8,4.6-10.51,10.29-10.59,5.7-.08,10.69,4.86,10.77,10.64.07,5.81-4.84,10.83-10.57,10.78-5.81-.05-10.51-4.9-10.48-10.83Z"/>
      <path class="cls-2" d="M88.97,169.28c.06,5.84-4.69,10.63-10.6,10.71-5.87.08-10.52-4.35-10.66-10.14-.14-6,4.75-11,10.73-10.97,5.71.03,10.48,4.74,10.53,10.4Z"/>
      <path class="cls-2" d="M111.08,205.68c-.06,5.88-4.86,10.62-10.72,10.6-5.89-.02-10.64-4.9-10.48-10.77.16-5.85,5.06-10.5,10.94-10.38,5.85.12,10.32,4.72,10.25,10.55Z"/>
      <path class="cls-2" d="M106.38,156.22c.01-5.87,4.81-10.61,10.7-10.56,5.74.04,10.49,4.69,10.57,10.37.09,5.93-4.94,10.84-10.98,10.72-5.85-.11-10.3-4.67-10.29-10.52Z"/>
      <path class="cls-2" d="M232.17,328.56c.01,5.78-4.54,10.44-10.32,10.56-5.69.12-10.75-4.81-10.85-10.57-.11-5.84,4.75-10.78,10.56-10.74,5.83.04,10.6,4.87,10.61,10.75Z"/>
      <path class="cls-2" d="M207.38,328.41c.02,5.87-4.46,10.43-10.29,10.48-6.05.06-10.94-4.82-10.85-10.83.08-5.74,4.79-10.36,10.53-10.34,5.89.02,10.59,4.76,10.61,10.68Z"/>
      <path class="cls-2" d="M246.2,314.63c5.95.03,10.66,4.74,10.64,10.62-.03,5.78-4.61,10.4-10.39,10.46-6.01.07-10.87-4.83-10.79-10.88.07-5.82,4.64-10.24,10.55-10.2Z"/>
      <path class="cls-2" d="M355.72,173.19c5.77.07,10.35,4.73,10.33,10.52-.02,5.76-4.96,10.68-10.72,10.68-5.87,0-10.61-4.88-10.47-10.77.15-5.93,4.91-10.5,10.86-10.42Z"/>
      <path class="cls-2" d="M71.71,241.92c-5.82-.02-10.38-4.57-10.4-10.38-.02-5.87,4.7-10.67,10.57-10.75,5.93-.08,10.64,4.66,10.57,10.62-.07,5.93-4.77,10.53-10.74,10.51Z"/>
      <path class="cls-2" d="M160.82,71.19c5.94,0,10.7,4.68,10.71,10.56.02,5.88-4.82,10.61-10.73,10.51-5.83-.1-10.6-4.99-10.54-10.81.06-5.76,4.69-10.26,10.56-10.26Z"/>
      <path class="cls-2" d="M268.91,105.38c5.91.03,10.6,4.78,10.54,10.68-.06,5.77-4.68,10.45-10.39,10.53-5.94.08-10.84-4.94-10.71-10.98.12-5.83,4.7-10.26,10.56-10.23Z"/>
      <path class="cls-2" d="M356.32,154.28c.05,5.96-4.57,10.77-10.42,10.86-5.78.09-10.69-4.8-10.67-10.63.02-5.82,4.87-10.65,10.71-10.64,5.8,0,10.34,4.56,10.39,10.41Z"/>
      <path class="cls-2" d="M150.81,111.55c5.76-.11,10.8,4.75,10.91,10.51.11,5.64-4.57,10.43-10.34,10.57-5.98.15-10.89-4.4-11.05-10.23-.16-5.79,4.63-10.74,10.48-10.85Z"/>
      <path class="cls-2" d="M315.39,286.19c.01,5.85-4.79,10.65-10.67,10.66-5.85.01-10.7-4.88-10.62-10.71.07-5.67,4.77-10.35,10.52-10.46,5.9-.11,10.76,4.62,10.77,10.5Z"/>
      <path class="cls-2" d="M326.78,230.7c5.83.02,10.45,4.56,10.48,10.33.04,5.86-4.7,10.69-10.57,10.78-5.88.09-10.75-4.73-10.69-10.58.06-5.83,4.89-10.55,10.78-10.54Z"/>
      <path class="cls-2" d="M222.08,368.74c-5.92.01-10.68-4.66-10.74-10.54-.07-5.89,4.74-10.67,10.64-10.58,5.81.09,10.67,5.03,10.6,10.78-.07,5.77-4.7,10.33-10.5,10.34Z"/>
      <path class="cls-2" d="M161.2,109.24c.01-5.82,4.54-10.36,10.39-10.4,5.9-.04,10.78,4.67,10.83,10.47.06,5.86-4.76,10.69-10.63,10.64-5.87-.05-10.6-4.83-10.59-10.72Z"/>
      <path class="cls-2" d="M106.32,189.52c-5.8-.05-10.49-4.68-10.5-10.37-.01-5.73,4.9-10.66,10.69-10.72,5.84-.06,10.73,4.82,10.67,10.64-.06,5.84-4.91,10.5-10.86,10.45Z"/>
      <path class="cls-2" d="M143.95,335.47c-.05,5.95-4.82,10.62-10.71,10.49-5.84-.13-10.49-5.08-10.32-10.97.17-5.8,4.8-10.29,10.59-10.27,5.91.02,10.5,4.74,10.45,10.75Z"/>
      <path class="cls-2" d="M293.57,340.62c-.01,5.76-4.6,10.39-10.37,10.45-5.86.07-10.78-4.66-10.87-10.46-.09-5.85,4.7-10.64,10.62-10.61,5.95.03,10.63,4.7,10.61,10.62Z"/>
      <path class="cls-2" d="M366.41,247.26c.02,5.86-4.74,10.65-10.62,10.69-5.95.05-10.71-4.69-10.63-10.58.08-5.83,4.97-10.61,10.81-10.55,5.75.05,10.43,4.73,10.44,10.44Z"/>
      <path class="cls-2" d="M253.47,343.37c5.78.06,10.65,4.99,10.63,10.76-.02,5.68-4.75,10.41-10.45,10.45-6,.05-10.85-4.89-10.75-10.93.1-5.75,4.81-10.34,10.57-10.28Z"/>
      <path class="cls-2" d="M328.59,204.45c5.83.04,10.42,4.6,10.44,10.37.01,5.8-4.82,10.7-10.62,10.77-5.82.07-10.7-4.82-10.64-10.65.06-5.83,4.91-10.53,10.82-10.49Z"/>
      <path class="cls-2" d="M306.93,118.09c-5.92.01-10.62-4.7-10.6-10.62.02-5.88,4.87-10.69,10.68-10.61,5.69.08,10.33,4.76,10.42,10.52.1,5.88-4.62,10.69-10.51,10.7Z"/>
      <path class="cls-2" d="M91.11,151.65c-5.85-.03-10.46-4.55-10.53-10.3-.07-5.82,4.72-10.63,10.63-10.68,5.89-.05,10.8,4.77,10.73,10.55-.07,5.85-4.85,10.46-10.83,10.43Z"/>
      <path class="cls-2" d="M205.7,103.81c.03,5.7-4.65,10.43-10.39,10.5-5.89.07-10.73-4.61-10.84-10.46-.11-5.94,4.59-10.72,10.51-10.69,5.83.03,10.69,4.86,10.72,10.66Z"/>
      <path class="cls-2" d="M308.27,336.3c-5.91.09-10.81-4.62-10.85-10.44-.04-5.78,4.46-10.44,10.25-10.61,5.93-.17,10.89,4.39,11.08,10.2.19,5.75-4.65,10.75-10.48,10.85Z"/>
      <path class="cls-2" d="M304.46,157.43c-5.98.07-10.7-4.59-10.67-10.53.04-5.93,4.78-10.71,10.61-10.69,5.65.02,10.37,4.68,10.55,10.41.18,5.78-4.63,10.74-10.5,10.81Z"/>
      <path class="cls-2" d="M142.46,137.91c-.18,5.89-5.07,10.31-11.11,10.04-5.73-.25-10.3-5.1-10.14-10.75.17-5.8,5.27-10.57,11.03-10.31,5.97.27,10.4,5.04,10.22,11.02Z"/>
      <path class="cls-2" d="M297.95,129.98c.05,6.03-4.52,10.67-10.5,10.67-5.9,0-10.63-4.78-10.59-10.68.04-5.73,4.69-10.45,10.4-10.54,5.86-.09,10.64,4.62,10.69,10.55Z"/>
      <path class="cls-2" d="M117.33,263.73c5.84.06,10.53,4.98,10.37,10.88-.16,5.72-4.87,10.34-10.58,10.36-5.91.02-10.62-4.77-10.52-10.69.1-5.94,4.85-10.61,10.74-10.55Z"/>
      <path class="cls-2" d="M112.18,228.51c-.07,5.86-4.86,10.58-10.75,10.58-5.94,0-10.7-4.84-10.52-10.69.18-5.78,5.23-10.63,10.94-10.49,5.69.13,10.41,4.97,10.34,10.6Z"/>
      <path class="cls-2" d="M307.8,166.06c-.06-5.91,4.59-10.76,10.42-10.89,5.77-.12,10.72,4.78,10.7,10.6-.02,5.86-4.81,10.62-10.69,10.63-5.83,0-10.37-4.49-10.43-10.34Z"/>
      <path class="cls-2" d="M120.94,316.71c-.23,5.9-5.15,10.52-11,10.32-5.8-.19-10.34-5.2-10.1-11.14.24-5.92,5.16-10.38,11.11-10.09,5.69.28,10.21,5.22,9.99,10.91Z"/>
      <path class="cls-2" d="M318.01,129.48c0-5.95,4.71-10.75,10.52-10.72,5.69.02,10.37,4.7,10.46,10.45.09,5.96-4.54,10.78-10.41,10.85-5.95.07-10.57-4.55-10.57-10.58Z"/>
      <path class="cls-2" d="M144.58,97.89c-.06,5.72-4.74,10.38-10.47,10.42-5.88.04-10.75-4.73-10.78-10.55-.03-5.89,4.72-10.57,10.69-10.53,5.96.05,10.62,4.76,10.56,10.66Z"/>
      <path class="cls-2" d="M172.51,332.31c-5.96,0-10.58-4.65-10.59-10.64-.01-5.95,4.73-10.67,10.63-10.56,5.82.1,10.57,5.04,10.48,10.86-.1,5.77-4.76,10.36-10.51,10.35Z"/>
      <path class="cls-2" d="M150.96,321.95c-5.77-.05-10.57-4.99-10.5-10.83.06-5.87,4.92-10.53,10.85-10.4,5.73.13,10.29,4.84,10.28,10.59-.02,5.93-4.77,10.69-10.62,10.63Z"/>
      <path class="cls-2" d="M217.26,111.43c-5.95.04-10.64-4.53-10.76-10.49-.11-5.76,4.45-10.53,10.16-10.66,5.97-.13,10.98,4.76,10.99,10.73,0,5.76-4.61,10.38-10.39,10.42Z"/>
      <path class="cls-2" d="M336.55,188.3c0,5.93-4.67,10.66-10.57,10.69-5.76.03-10.48-4.55-10.57-10.28-.1-5.95,4.89-10.98,10.82-10.93,5.72.05,10.31,4.72,10.32,10.52Z"/>
      <path class="cls-2" d="M201.74,153.52c2.86,1.4,5.78.09,8.74-1.38,1.43-.71,3.26-1.15,4.61-.45,3.75,1.97,7.57,1.75,11.51,1.11.58-.1,1.36-.17,1.79.13,4.78,3.28,10.88,3.39,15.64,5.98,3.86,2.1,8.26,4.37,11.31,7.21,4.33,4.04,11.17,6.29,12.23,13.56.2,1.4,2.55,2.37,3.15,3.84,1.58,3.86,4.13,7.31,5.55,11.07,1.49,3.93,2.4,8.38,2.99,12.55.6,4.26.11,8.79.35,13.24.2,3.71-.54,8-1.36,11.62-1.25,5.51-4.23,10.9-7.11,15.94-1.35,2.36-3.58,4.26-4.17,7.19-.16.79-.63,1.92-1.25,2.15-6.96,2.63-9.37,11.68-17.64,12.41-1.08.1-1.48,1.15-2.07,1.91-2.6,3.33-6.02,4.91-10.2,4.11-1.62-.31-2.44.3-3.49,1.21-3.06,2.67-6.59,3.58-10.49,2.15-1.5-.55-2.64-.42-4.04.41-2.65,1.58-5.8,1.79-8.41.44-2.82-1.47-5.46-2.12-8.54-1.52-.92.18-2.22.27-2.85-.23-4.56-3.57-10.89-3.54-15.19-6.65-4.01-2.91-8.51-5.5-11.95-8.77-3.67-3.5-7.15-7.78-10.09-12.01-2.42-3.47-4.15-7.77-6.08-11.7-2.03-4.15-4.02-9.49-3.67-13.7.47-5.68-3.76-11.57.53-17.03.29-.37-.28-1.36-.31-2.07-.22-6.4,2.29-12.12,5.24-17.47,1.26-2.27,3.74-3.87,3.78-6.89,0-.35.11-.8.35-1.02,4.04-3.71,6.2-8.87,10.65-12.51,3.86-3.16,8.14-5.45,12.25-7.95,4.87-2.97,10.89-3.76,15.91-6.72.46-.27,1.19-.09,2.31-.15ZM226.62,259.94c.75-.04,2.15.62,3.28-.54,1.94-2,4.21-3.23,7.09-3.23.53,0,1.22-.37,1.56-.8,3.81-4.83,10.17-6.89,13.42-12.37.48-.8,1.17-1.38,1.25-2.44.2-2.55,1.48-4.56,3.37-6.24.7-.62,1.47-1.12,1.53-2.31.24-4.76,1.8-9.3,1.78-14.19-.02-5.51-.73-10.65-2.35-15.91-1.24-4.03-3.61-7.32-5.39-10.98-1.63-3.34-4.19-5.89-7.07-8.31-3.73-3.13-7.26-6.34-12.16-7.56-.83-.21-1.47-1.22-2.18-1.88-.52-.49-.96-1.3-1.77-1.07-5.5,1.51-10.63-3.25-16.22-.9-1.45.61-3.22-1.4-4.55-.4-4.22,3.17-9.56,3.21-14.21,5.56-8.27,4.18-13.04,11.42-19.14,17.53-.29.29-.31.9-.36,1.37-.46,4.33-3.02,7.96-3.86,12.26-.77,3.92-1.04,8.19-.49,11.55.7,4.3-.03,9.45,3.44,13.25.63.69.65,2.07.68,3.14.03,1.22.71,1.91,1.42,2.78,3.45,4.22,5.88,9.32,10.72,12.34.27.17.43.6.53.94.48,1.63,1.69,2.29,3.24,2.45,3.32.33,5.02,3.46,7.57,4.53,2.63,1.11,6.15.12,8.88,2.05.91.65,1.77,1.11,3.01.85,5.06-1.08,10.43,1.08,15.38-1.43.29-.15.72-.02,1.62-.02Z"/>
      <path class="cls-2" d="M251.89,215.97c1.24,19.02-16.8,37.39-36.91,36.94-20.54-.45-36.93-16.57-36.9-37.15.03-20.45,16.58-36.49,37.29-36.74,20.25-.24,37.75,18.18,36.52,36.94ZM230.69,216.13c.02-8.94-6.67-15.84-15.41-15.86-8.63-.02-15.87,7.01-15.99,15.53-.12,8.51,7.05,15.77,15.64,15.85,8.85.08,15.73-6.7,15.76-15.51Z"/>
      <text class="cls-1" transform="translate(653.43 395.59)"><tspan class="cls-7" x="0" y="0">G</tspan><tspan class="cls-9" x="46.48" y="0">R</tspan><tspan class="cls-4" x="87.79" y="0">O</tspan><tspan class="cls-8" x="136.94" y="0">WTH</tspan><tspan class="cls-3" x="285.5" y="0"> </tspan><tspan class="cls-5" x="308.61" y="0">A</tspan><tspan class="cls-6" x="351.88" y="0">UTHORIT</tspan><tspan class="cls-10" x="643.84" y="0">Y</tspan></text>
    </g>
  </g>
</svg>