<svg xmlns="http://www.w3.org/2000/svg" viewBox="0 0 200 200">
  <style>
    @media (prefers-color-scheme: dark) {
      .dots { fill: #ff6b35; }
      .center { fill: #ffffff; }
    }
  </style>
  
  <!-- Outer ring of dots -->
  <circle class="dots" fill="#e63946" cx="100" cy="20" r="4"/>
  <circle class="dots" fill="#e63946" cx="120" cy="25" r="4"/>
  <circle class="dots" fill="#e63946" cx="138" cy="35" r="4"/>
  <circle class="dots" fill="#e63946" cx="155" cy="48" r="4"/>
  <circle class="dots" fill="#e63946" cx="168" cy="65" r="4"/>
  <circle class="dots" fill="#e63946" cx="178" cy="83" r="4"/>
  <circle class="dots" fill="#e63946" cx="185" cy="103" r="4"/>
  <circle class="dots" fill="#e63946" cx="188" cy="123" r="4"/>
  <circle class="dots" fill="#e63946" cx="185" cy="143" r="4"/>
  <circle class="dots" fill="#e63946" cx="178" cy="163" r="4"/>
  <circle class="dots" fill="#e63946" cx="168" cy="180" r="4"/>
  <circle class="dots" fill="#e63946" cx="155" cy="197" r="4"/>
  <circle class="dots" fill="#e63946" cx="138" cy="210" r="4"/>
  <circle class="dots" fill="#e63946" cx="120" cy="220" r="4"/>
  <circle class="dots" fill="#e63946" cx="100" cy="225" r="4"/>
  <circle class="dots" fill="#e63946" cx="80" cy="220" r="4"/>
  <circle class="dots" fill="#e63946" cx="62" cy="210" r="4"/>
  <circle class="dots" fill="#e63946" cx="45" cy="197" r="4"/>
  <circle class="dots" fill="#e63946" cx="32" cy="180" r="4"/>
  <circle class="dots" fill="#e63946" cx="22" cy="163" r="4"/>
  <circle class="dots" fill="#e63946" cx="15" cy="143" r="4"/>
  <circle class="dots" fill="#e63946" cx="12" cy="123" r="4"/>
  <circle class="dots" fill="#e63946" cx="15" cy="103" r="4"/>
  <circle class="dots" fill="#e63946" cx="22" cy="83" r="4"/>
  <circle class="dots" fill="#e63946" cx="32" cy="65" r="4"/>
  <circle class="dots" fill="#e63946" cx="45" cy="48" r="4"/>
  <circle class="dots" fill="#e63946" cx="62" cy="35" r="4"/>
  <circle class="dots" fill="#e63946" cx="80" cy="25" r="4"/>
  
  <!-- Middle ring of dots -->
  <circle class="dots" fill="#f77f00" cx="100" cy="40" r="3.5"/>
  <circle class="dots" fill="#f77f00" cx="115" cy="44" r="3.5"/>
  <circle class="dots" fill="#f77f00" cx="128" cy="52" r="3.5"/>
  <circle class="dots" fill="#f77f00" cx="140" cy="62" r="3.5"/>
  <circle class="dots" fill="#f77f00" cx="148" cy="75" r="3.5"/>
  <circle class="dots" fill="#f77f00" cx="154" cy="90" r="3.5"/>
  <circle class="dots" fill="#f77f00" cx="156" cy="105" r="3.5"/>
  <circle class="dots" fill="#f77f00" cx="154" cy="120" r="3.5"/>
  <circle class="dots" fill="#f77f00" cx="148" cy="135" r="3.5"/>
  <circle class="dots" fill="#f77f00" cx="140" cy="148" r="3.5"/>
  <circle class="dots" fill="#f77f00" cx="128" cy="158" r="3.5"/>
  <circle class="dots" fill="#f77f00" cx="115" cy="166" r="3.5"/>
  <circle class="dots" fill="#f77f00" cx="100" cy="170" r="3.5"/>
  <circle class="dots" fill="#f77f00" cx="85" cy="166" r="3.5"/>
  <circle class="dots" fill="#f77f00" cx="72" cy="158" r="3.5"/>
  <circle class="dots" fill="#f77f00" cx="60" cy="148" r="3.5"/>
  <circle class="dots" fill="#f77f00" cx="52" cy="135" r="3.5"/>
  <circle class="dots" fill="#f77f00" cx="46" cy="120" r="3.5"/>
  <circle class="dots" fill="#f77f00" cx="44" cy="105" r="3.5"/>
  <circle class="dots" fill="#f77f00" cx="46" cy="90" r="3.5"/>
  <circle class="dots" fill="#f77f00" cx="52" cy="75" r="3.5"/>
  <circle class="dots" fill="#f77f00" cx="60" cy="62" r="3.5"/>
  <circle class="dots" fill="#f77f00" cx="72" cy="52" r="3.5"/>
  <circle class="dots" fill="#f77f00" cx="85" cy="44" r="3.5"/>
  
  <!-- Inner ring of dots -->
  <circle class="dots" fill="#fcbf49" cx="100" cy="62" r="3"/>
  <circle class="dots" fill="#fcbf49" cx="110" cy="65" r="3"/>
  <circle class="dots" fill="#fcbf49" cx="118" cy="72" r="3"/>
  <circle class="dots" fill="#fcbf49" cx="124" cy="82" r="3"/>
  <circle class="dots" fill="#fcbf49" cx="127" cy="93" r="3"/>
  <circle class="dots" fill="#fcbf49" cx="127" cy="105" r="3"/>
  <circle class="dots" fill="#fcbf49" cx="124" cy="117" r="3"/>
  <circle class="dots" fill="#fcbf49" cx="118" cy="127" r="3"/>
  <circle class="dots" fill="#fcbf49" cx="110" cy="134" r="3"/>
  <circle class="dots" fill="#fcbf49" cx="100" cy="137" r="3"/>
  <circle class="dots" fill="#fcbf49" cx="90" cy="134" r="3"/>
  <circle class="dots" fill="#fcbf49" cx="82" cy="127" r="3"/>
  <circle class="dots" fill="#fcbf49" cx="76" cy="117" r="3"/>
  <circle class="dots" fill="#fcbf49" cx="73" cy="105" r="3"/>
  <circle class="dots" fill="#fcbf49" cx="73" cy="93" r="3"/>
  <circle class="dots" fill="#fcbf49" cx="76" cy="82" r="3"/>
  <circle class="dots" fill="#fcbf49" cx="82" cy="72" r="3"/>
  <circle class="dots" fill="#fcbf49" cx="90" cy="65" r="3"/>
  
  <!-- Center circle -->
  <circle class="center" fill="#ffffff" cx="100" cy="100" r="12"/>
  <circle class="dots" fill="#e63946" cx="100" cy="100" r="8"/>
</svg> 